HIERARCHY
ROOT pelvis
{
  OFFSET 0 100 0
  CHANNELS 6 Xposition Yposition Zposition Zrotation Xrotation Yrotation
  JOINT pelvis_right_femur
  {
    OFFSET -10.78128 -3.44521 -0.5502486
    CHANNELS 3 Zrotation Xrotation Yrotation
    JOINT right_femur_tibia
    {
      OFFSET -0.8047443 -44.0398 -0.1307829
      CHANNELS 3 Zrotation Xrotation Yrotation
      JOINT right_tibia_foot
      {
        OFFSET 3.006224 -47.83518 -5
        CHANNELS 3 Zrotation Xrotation Yrotation
        End Site
        {
          OFFSET 0 -5 15
        }
      }
    }
  }
  JOINT pelvis_left_femur
  {
    OFFSET 10.78128 -3.44521 -0.5502486
    CHANNELS 3 Zrotation Xrotation Yrotation
    JOINT left_femur_tibia
    {
      OFFSET 0.8047443 -44.0398 -0.1307829
      CHANNELS 3 Zrotation Xrotation Yrotation
      JOINT left_tibia_foot
      {
        OFFSET -4.370144 -48.10324 -4.275266
        CHANNELS 3 Zrotation Xrotation Yrotation
        End Site
        {
          OFFSET 0 -5 15
        }
      }
    }
  }
  JOINT pelvis_spine1
  {
    OFFSET 0 6.468898 -3.129235
    CHANNELS 3 Zrotation Xrotation Yrotation
    JOINT spine1
    {
      OFFSET 0 23.15396 4.99043
      CHANNELS 3 Zrotation Xrotation Yrotation
      JOINT spine2
      {
        OFFSET 0 20.79997 -5.064912
        CHANNELS 3 Zrotation Xrotation Yrotation
        JOINT neck
        {
          OFFSET 0 14.38658 9.616178
          CHANNELS 3 Zrotation Xrotation Yrotation
          End Site
          {
            OFFSET 0 20 0
          }
        }
      }
      JOINT right_manubrium
      {
        OFFSET -5.722621 16.35077 3.967754
        CHANNELS 3 Zrotation Xrotation Yrotation
        JOINT right_clavicle
        {
          OFFSET -13.16364 1.694482 -4.693211
          CHANNELS 3 Zrotation Xrotation Yrotation
          JOINT right_humerus
          {
            OFFSET -28.5034 -0.3100689 -2.792744
            CHANNELS 3 Zrotation Xrotation Yrotation
            JOINT right_radius
            {
              OFFSET -25.15693 0.02248979 -1.271978
              CHANNELS 3 Zrotation Xrotation Yrotation
              End Site
              {
                OFFSET -15 0 0
              }
            }
          }
        }
      }
      JOINT left_manubrium
      {
        OFFSET 5.722621 16.35077 3.967754
        CHANNELS 3 Zrotation Xrotation Yrotation
        JOINT left_clavicle
        {
          OFFSET 13.16364 1.694482 -4.693211
          CHANNELS 3 Zrotation Xrotation Yrotation
          JOINT left_humerus
          {
            OFFSET 29.39168 -1.063119 -2.237045
            CHANNELS 3 Zrotation Xrotation Yrotation
            JOINT left_radius
            {
              OFFSET 24.59957 -0.9528479 0.9047498
              CHANNELS 3 Zrotation Xrotation Yrotation
              End Site
              {
                OFFSET 15 -0 -0
              }
            }
          }
        }
      }
    }
  }
}
MOTION
Frames: 23
Frame Time: 0.0416666666667
335.2461 104.23 2903.804 -0.1408708 -5.044763 2.225818 3.810045 18.57837 1.648216 -0 13.83751 -0 -5.617608 -16.48316 -0.6146701 2.056863 -26.43939 -4.301724 -0 14.65513 -0 -3.759662 -6.130413 20.20692 0.7560119 -4.440629 8.765785 0.2026397 15.54762 -4.399914 0.189452 19.21736 2.883146 0.1621055 -17.70297 4.353868 -0.5623066 -33.07335 12.61049 85.22639 19.23642 -4.501396 -0 0 33.2603 -23.27011 16.61392 18.61472 0.9894236 -20.80733 -7.208065 -96.81564 8.759264 43.65376 0 0 -6.006161 6.33821 12.30229 7.732375
336.4867 103.4853 2910.33 0.2225416 -5.242659 1.565571 2.330738 20.37945 1.126411 -0 18.37096 -0 -5.932785 -13.96199 0.1211261 0.3685129 -25.02898 -6.329543 -0 13.64812 -0 -3.83625 -6.374784 20.77171 0.4069477 -4.042239 8.543125 -0.1620121 14.60137 -3.68888 0.5015799 19.94287 3.085292 0.4323216 -17.38125 4.695643 -0.4564145 -31.84246 12.33038 84.18525 20.25301 -3.059855 -0 0 32.36664 -23.75547 15.57242 18.78533 1.401901 -19.71649 -6.491649 -97.17616 9.836529 42.22835 0 0 -4.292618 6.049004 12.88471 7.531123
337.8193 103.1968 2917.274 0.9308381 -5.753176 1.143948 0.5945978 21.17371 0.8741758 -0 24.52527 -0 -6.625381 -8.595393 0.9329296 -1.659418 -22.48022 -8.614999 -0 14.91302 -0 -3.567705 -6.598045 21.15706 0.04960211 -3.621817 8.296965 -0.5197878 13.74079 -2.973545 0.8243369 20.707 3.322132 0.8176259 -16.99201 5.004311 -0.2212348 -30.51062 12.11 83.12519 21.16794 -1.731662 -0 0 31.30511 -24.24155 14.55733 18.78346 1.852212 -18.74887 -5.907193 -97.61113 10.88583 40.66355 0 0 -2.305694 5.858272 13.50781 7.14138
339.1848 103.4246 2924.369 1.720884 -6.265756 1.155274 -0.8278771 20.08807 1.232348 -0 32.31285 -0 -7.242697 -1.636698 1.26526 -3.436942 -19.243 -10.15972 -0 16.87306 -0 -2.621384 -6.934597 21.01441 -0.2410113 -3.249174 8.042181 -0.8129138 13.11721 -2.392803 1.10418 21.37274 3.543819 1.230549 -16.61886 5.236041 0.07467844 -29.30876 11.97204 82.29787 21.83693 -0.8022956 -0 0 30.22708 -24.64884 13.78368 18.63527 2.264123 -18.07033 -5.550079 -97.99273 11.72481 39.21061 0 0 -0.4764139 5.834376 14.10499 6.614281
340.5224 104.1444 2931.27 2.254406 -6.620111 1.635236 -1.426531 16.64767 1.804988 -0 40.90621 -0 -7.479986 4.469676 0.776754 -4.712942 -15.5714 -10.65504 -0 18.24355 -0 -1.256931 -7.726449 20.46598 -0.4137456 -2.981671 7.808408 -1.018106 12.8145 -2.017658 1.30448 21.84738 3.721963 1.618273 -16.31771 5.361317 0.3698144 -28.40663 11.92671 81.83215 22.19754 -0.4096439 -0 0 29.28554 -24.96237 13.36833 18.38465 2.598102 -17.77664 -5.464326 -98.26673 12.2147 38.07058 -0 0 0.9395264 6.024443 14.62927 5.977094
341.7861 105.2545 2937.725 2.346322 -6.90819 2.459218 -1.156814 10.8782 2.020402 -0 48.64048 -0 -7.53008 8.536905 -0.1965226 -5.451279 -11.25297 -10.45403 -0 18.56733 -0 0.1516932 -8.996576 19.84787 -0.4710374 -2.814011 7.601839 -1.157541 12.80838 -1.822803 1.430154 22.14492 3.866429 2.002275 -16.07829 5.378539 0.6599575 -27.77076 11.9664 81.68419 22.30369 -0.5178343 -0 0 28.47401 -25.22754 13.27116 18.03467 2.880511 -17.85251 -5.632582 -98.44474 12.36047 37.19849 -0 0 1.977308 6.452925 15.09344 5.185859
342.9643 106.5504 2943.613 2.039928 -7.213661 3.458188 -0.3336165 3.249296 1.870181 -0 53.65751 -0 -7.495679 10.7799 -1.176018 -5.65309 -6.278294 -9.969396 -0 17.70996 -0 1.339104 -10.50288 19.18947 -0.4163882 -2.729003 7.421743 -1.247534 13.08384 -1.795102 1.491791 22.28289 3.981341 2.413309 -15.88426 5.275195 0.955837 -27.33016 12.08814 81.81426 22.17843 -1.129945 -0 0 27.74245 -25.47226 13.44496 17.54594 3.144817 -18.30135 -6.052421 -98.51753 12.19175 36.46779 -0 0 2.646177 7.138966 15.50197 4.188853
344.0744 107.6775 2948.943 1.520522 -7.572497 4.481381 0.633521 -5.173876 1.587039 -0 54.2059 -0 -7.289443 11.00077 -2.028093 -5.388894 -1.020052 -9.587321 -0 15.70344 -0 1.89324 -12.14198 18.32442 -0.2203232 -2.751323 7.301976 -1.266512 13.71094 -1.993341 1.474761 22.20337 4.036256 2.846149 -15.75498 4.996713 1.244583 -27.12947 12.31098 82.26482 21.71843 -2.37279 -0 0 27.15565 -25.67099 13.91806 16.85735 3.386403 -19.22753 -6.776548 -98.44391 11.65356 35.86365 -0 0 2.758664 8.084805 15.77951 2.99123
345.1121 108.2086 2953.878 1.120636 -7.748268 5.430632 1.10435 -12.80699 1.114148 -0 49.04491 -0 -6.982251 8.293828 -2.940666 -4.956862 4.146438 -9.704826 -0 12.971 -0 1.241197 -14.24269 17.10678 0.1468914 -2.919445 7.316085 -1.166129 14.77233 -2.507956 1.34326 21.81378 3.985962 3.273998 -15.72042 4.46296 1.499843 -27.26781 12.65626 83.07254 20.78928 -4.377618 -0 0 26.86603 -25.73431 14.6936 15.88323 3.564708 -20.75812 -7.863052 -98.17557 10.66497 35.44927 -0 0 2.038179 9.223188 15.75076 1.686305
346.0207 107.9103 2958.671 1.101028 -7.076787 6.241282 0.6179694 -18.51027 0.3385354 -0 38.53685 -0 -6.564353 3.198286 -4.128916 -4.784847 8.885186 -10.34974 -0 10.27238 -0 -0.631178 -17.16953 15.67087 0.6513892 -3.209153 7.530625 -0.9102645 16.19405 -3.359224 1.066806 21.09761 3.823669 3.677336 -15.77813 3.641451 1.695911 -27.75312 13.09595 84.14973 19.43534 -7.039608 -0 0 26.97757 -25.5183 15.59065 14.54899 3.625576 -22.84599 -9.267354 -97.70022 9.259673 35.26855 -0 0 0.400339 10.36281 15.21347 0.471444
346.7842 106.9431 2963.465 1.264412 -5.291083 6.83467 -0.02464685 -22.52379 -0.3315134 -0 26.23518 -0 -5.737347 -1.041926 -5.09871 -5.032905 12.43267 -11.0962 -0 8.484311 -0 -2.227307 -20.11409 14.67387 1.175716 -3.523093 7.968887 -0.5040969 17.67066 -4.422526 0.6336106 20.15716 3.621488 4.034724 -15.90066 2.624579 1.798378 -28.54162 13.53976 85.27752 17.96509 -9.852348 -0 0 27.55814 -24.87915 16.26195 12.92521 3.498011 -25.14561 -10.78138 -97.12771 7.606342 35.50789 0 0 -1.797946 11.18125 14.06074 -0.3191071
347.4695 105.6948 2968.221 1.134984 -2.948847 7.245783 0.4130623 -26.31558 -0.3365152 -0 17.44706 -0 -4.810241 -2.433683 -5.013966 -5.458754 14.44331 -11.85047 -0 8.139735 -0 -1.930098 -21.9277 14.59887 1.535395 -3.742588 8.56363 -0.0281555 18.71202 -5.397842 0.07672619 19.2264 3.54463 4.30599 -16.05307 1.688967 1.782951 -29.5553 13.8733 86.16444 16.91167 -11.97189 -0 0 28.57258 -23.83179 16.35982 11.39701 3.138258 -27.01351 -12.0132 -96.70646 6.027707 36.52173 0 0 -3.724207 11.35979 12.45673 -0.3109336
348.1239 104.5214 2972.951 0.4709976 -0.5042718 7.651657 2.094205 -30.55734 0.5629799 -0 13.39616 -0 -4.566952 -2.070976 -4.046337 -5.709135 15.56122 -12.84284 -0 9.379696 -0 -0.587198 -22.78959 15.14527 1.587744 -3.79254 9.062566 0.3292014 18.93787 -5.947276 -0.4498375 18.65738 3.734226 4.499696 -16.16797 1.172613 1.686939 -30.35795 14.00263 86.60901 16.75331 -12.88874 -0 0 29.43919 -22.80646 15.81027 10.46428 2.751396 -27.89248 -12.55807 -96.54663 5.002584 37.91976 0 0 -4.681318 11.05321 11.02724 0.276596
348.7717 103.5505 2977.935 -0.3855765 1.235867 8.215173 3.993124 -33.63091 1.370421 -0 11.46354 -0 -5.154296 -0.8404345 -2.992055 -5.59292 16.41217 -13.40097 -0 12.30458 -0 -0.4404902 -22.95666 15.04579 1.41753 -3.719486 9.296151 0.4596035 18.55589 -6.047656 -0.7877752 18.5408 4.08215 4.650533 -16.20321 1.093228 1.587875 -30.61052 13.95004 86.66465 17.33796 -12.91575 -0 0 29.70837 -22.22859 15.00433 10.1704 2.580084 -27.91309 -12.46286 -96.53666 4.666099 38.87041 0 0 -4.77256 10.71206 10.24383 0.8079666
349.4326 102.7756 2983.57 -0.9067764 1.631684 8.925848 4.96921 -33.88986 1.313511 -0 9.91342 -0 -5.554685 0.5283094 -2.880535 -5.135127 17.55905 -12.66343 -0 17.03899 -0 -2.815517 -22.11089 13.10486 1.194119 -3.609552 9.337299 0.4313992 18.00748 -5.908489 -0.9382464 18.6734 4.408244 4.757482 -16.18296 1.235219 1.527804 -30.49171 13.82149 86.51488 18.16727 -12.5557 -0 0 29.58369 -22.05515 14.3185 10.23007 2.588356 -27.54193 -12.088 -96.57978 4.744215 39.25981 0 0 -4.446656 10.50004 9.989001 1.081975
350.115 102.3755 2989.952 -1.184092 1.097943 9.57308 5.589119 -31.00737 1.757906 -0 10.22204 -0 -5.220613 0.6017536 -3.942709 -4.39769 18.27764 -11.21504 -0 23.96231 -0 -5.950905 -19.06466 10.59028 1.028511 -3.525773 9.313642 0.3641944 17.59164 -5.742123 -0.9847371 18.83417 4.619578 4.813415 -16.15283 1.397642 1.501728 -30.30799 13.71179 86.34549 18.81552 -12.18898 -0 0 29.39539 -22.05692 13.898 10.37585 2.642527 -27.17088 -11.75045 -96.62551 4.919247 39.36639 0 0 -4.103504 10.39414 9.963252 1.192881
350.8166 102.5691 2996.635 -1.76947 0.5870564 9.825588 6.741543 -26.74641 3.693182 -0 13.51305 -0 -5.037087 -1.524799 -4.986432 -3.322141 16.76258 -10.62905 -0 32.36628 -0 -7.539511 -13.73786 9.341436 0.9195185 -3.510024 9.309091 0.3120362 17.31805 -5.587699 -0.9985473 18.94608 4.735862 4.77205 -16.14111 1.5651 1.473948 -30.2789 13.6418 86.19247 19.23878 -11.7994 -0 0 29.37163 -22.1066 13.71423 10.64531 2.634812 -26.8236 -11.47403 -96.71684 5.079889 39.62575 0 0 -3.82299 10.27988 9.979332 1.379252
351.4664 103.1098 3003.169 -2.007713 -0.5058686 9.554411 7.361907 -22.75345 4.837833 -0 16.80175 -0 -5.500187 -4.642572 -5.299399 -2.474036 13.79588 -10.89769 -0 40.63581 -0 -8.479353 -9.250903 9.429077 0.8037748 -3.576165 9.35947 0.2791351 17.02629 -5.39431 -1.029198 19.03307 4.836613 4.586481 -16.16429 1.821524 1.398681 -30.47645 13.57573 86.00476 19.65991 -11.20331 -0 0 29.58036 -22.16346 13.6315 11.19524 2.518101 -26.33214 -11.10524 -96.90099 5.268656 40.36249 0 0 -3.561702 10.04555 9.947362 1.854687
352.0328 103.909 3009.58 -1.316465 -2.96434 8.935412 7.132246 -17.65927 4.612393 -0 18.55425 -0 -5.916593 -6.567822 -5.579287 -2.367102 10.64868 -10.25064 -0 49.34762 -0 -9.094406 -7.242688 10.97916 0.7267295 -3.724369 9.487576 0.3303855 16.82545 -5.313605 -1.127456 19.00349 4.90883 4.314628 -16.251 2.039396 1.265759 -30.90526 13.54345 85.93653 19.89777 -10.77158 -0 0 29.99259 -22.09979 13.62804 11.76504 2.301418 -25.96981 -10.80056 -97.06075 5.34381 41.44774 0 0 -3.65509 9.751942 9.743311 2.532343
352.602 105.1879 3015.733 -0.6535515 -4.818619 8.150801 7.025624 -11.74351 4.529259 -0 17.99566 -0 -6.378299 -6.786407 -5.27146 -2.50399 5.139448 -8.79545 -0 57.7139 -0 -8.137293 -5.863402 12.76127 0.7561418 -3.959539 9.67768 0.4897611 16.89411 -5.427684 -1.271645 18.79417 4.872493 3.973066 -16.40521 2.127748 1.101495 -31.59308 13.59188 86.08975 19.68447 -10.71223 -0 0 30.62633 -21.89585 13.85554 12.22039 1.98667 -25.92647 -10.73332 -97.13589 5.204658 42.71839 0 0 -4.243418 9.483131 9.393723 3.2849
353.2285 106.6557 3021.517 0.0578256 -5.657124 7.331669 6.536004 -6.194042 4.483815 -0 15.28618 -0 -6.209293 -6.764999 -4.478718 -2.516236 -2.088125 -7.334503 -0 62.5629 -0 -6.645537 -5.087769 13.63195 0.8805311 -4.294566 9.875457 0.7094192 17.20075 -5.63226 -1.383993 18.46383 4.66431 3.436634 -16.63654 2.204356 0.898392 -32.57749 13.697 86.37827 19.0829 -10.69498 -0 0 31.54733 -21.67621 14.47492 12.8572 1.546329 -25.95565 -10.77898 -97.15567 4.982604 44.20936 0 0 -5.204337 9.206967 9.071533 4.175664
353.8912 107.8031 3027.065 0.9357676 -6.193541 6.583328 5.545263 -1.246958 4.44233 -0 12.55481 -0 -5.189296 -7.688241 -3.780028 -2.174015 -8.92251 -6.207366 -0 61.68572 -0 -5.788839 -5.291722 14.43749 1.045306 -4.667324 9.968212 0.9019315 17.57177 -5.796432 -1.366477 18.14404 4.271523 2.660941 -16.94771 2.397466 0.6525709 -33.66033 13.77853 86.66503 18.36617 -10.36813 -0 0 32.61127 -21.5987 15.47809 13.87299 1.057684 -25.74653 -10.7044 -97.09663 4.913333 45.59772 0 0 -6.305223 8.889755 9.034489 5.13276
354.5117 108.2754 3032.484 1.52713 -6.884825 5.86721 4.767119 3.768238 4.314212 -0 11.08343 -0 -4.464761 -9.900925 -3.442863 -1.302789 -14.38268 -5.595573 -0 55.17545 -0 -5.774785 -5.948928 16.47063 1.178904 -4.943733 9.874289 0.9816807 17.77572 -5.828023 -1.174214 17.9745 3.787519 1.818292 -17.28239 2.716394 0.3899234 -34.44752 13.7548 86.81242 17.83227 -9.633438 -0 0 33.48434 -21.74633 16.55282 15.09546 0.6947028 -25.18286 -10.36487 -96.96542 5.167259 46.34191 0 0 -7.147503 8.500726 9.430835 5.95002
